<svg width="854" height="245" viewBox="0 0 854 245" fill="none" xmlns="http://www.w3.org/2000/svg">
<g opacity="0.9">
<rect x="468" y="33.655" width="132.641" height="35.6348" rx="17.8174" fill="#EEEEEE"/>
<circle cx="511.884" cy="36.6246" r="25.4063" fill="#EEEEEE"/>
<circle cx="566.656" cy="40.584" r="25.4063" fill="#EEEEEE"/>
<circle cx="534.32" cy="25.4063" r="25.4063" fill="#EEEEEE"/>
</g>
<g opacity="0.9">
<rect x="344" y="137.688" width="93.3594" height="25.0816" rx="12.5408" fill="#EEEEEE"/>
<circle cx="374.888" cy="139.778" r="17.8823" fill="#EEEEEE"/>
<circle cx="413.439" cy="142.565" r="17.8823" fill="#EEEEEE"/>
<circle cx="390.68" cy="131.882" r="17.8823" fill="#EEEEEE"/>
</g>
<g opacity="0.9">
<rect x="148" y="219.688" width="93.3594" height="25.0816" rx="12.5408" fill="#EEEEEE"/>
<circle cx="178.888" cy="221.778" r="17.8823" fill="#EEEEEE"/>
<circle cx="217.439" cy="224.565" r="17.8823" fill="#EEEEEE"/>
<circle cx="194.68" cy="213.882" r="17.8823" fill="#EEEEEE"/>
</g>
<g opacity="0.9">
<rect x="564" y="181.088" width="114.641" height="30.799" rx="15.3995" fill="#EEEEEE"/>
<circle cx="601.928" cy="183.654" r="21.9585" fill="#EEEEEE"/>
<circle cx="649.267" cy="187.077" r="21.9585" fill="#EEEEEE"/>
<circle cx="621.32" cy="173.959" r="21.9585" fill="#EEEEEE"/>
</g>
<g opacity="0.9">
<rect x="739" y="146.088" width="114.641" height="30.799" rx="15.3995" fill="#EEEEEE"/>
<circle cx="776.928" cy="148.654" r="21.9585" fill="#EEEEEE"/>
<circle cx="824.267" cy="152.077" r="21.9585" fill="#EEEEEE"/>
<circle cx="796.32" cy="138.959" r="21.9585" fill="#EEEEEE"/>
</g>
<g opacity="0.9">
<rect x="163" y="129.088" width="114.641" height="30.799" rx="15.3995" fill="#EEEEEE"/>
<circle cx="200.928" cy="131.654" r="21.9585" fill="#EEEEEE"/>
<circle cx="248.267" cy="135.077" r="21.9585" fill="#EEEEEE"/>
<circle cx="220.32" cy="121.959" r="21.9585" fill="#EEEEEE"/>
</g>
<g opacity="0.9">
<rect y="49.4832" width="151.669" height="40.747" rx="20.3735" fill="#EEEEEE"/>
<circle cx="50.1791" cy="52.8788" r="29.0511" fill="#EEEEEE"/>
<circle cx="112.809" cy="57.4062" r="29.0511" fill="#EEEEEE"/>
<circle cx="75.8346" cy="40.0511" r="29.0511" fill="#EEEEEE"/>
</g>
<g opacity="0.9">
<rect x="654" y="36.718" width="101.359" height="27.2309" rx="13.6154" fill="#EEEEEE"/>
<circle cx="687.534" cy="38.9873" r="19.4146" fill="#EEEEEE"/>
<circle cx="729.389" cy="42.0129" r="19.4146" fill="#EEEEEE"/>
<circle cx="704.68" cy="30.4146" r="19.4146" fill="#EEEEEE"/>
</g>
</svg>
