<svg width="854" height="245" viewBox="0 0 854 245" fill="none" xmlns="http://www.w3.org/2000/svg">
<g clip-path="url(#clip0_567_4188)">
<g opacity="0.9">
<path d="M582.824 33.655H485.817C475.977 33.655 468 41.6322 468 51.4724C468 61.3127 475.977 69.2898 485.817 69.2898H582.824C592.664 69.2898 600.641 61.3127 600.641 51.4724C600.641 41.6322 592.664 33.655 582.824 33.655Z" fill="#E69C7C"/>
<path d="M511.884 62.0309C525.916 62.0309 537.29 50.6561 537.29 36.6246C537.29 22.5931 525.916 11.2183 511.884 11.2183C497.853 11.2183 486.478 22.5931 486.478 36.6246C486.478 50.6561 497.853 62.0309 511.884 62.0309Z" fill="#E69C7C"/>
<path d="M566.656 65.9903C580.688 65.9903 592.062 54.6155 592.062 40.584C592.062 26.5525 580.688 15.1777 566.656 15.1777C552.625 15.1777 541.25 26.5525 541.25 40.584C541.25 54.6155 552.625 65.9903 566.656 65.9903Z" fill="#E69C7C"/>
<path d="M534.32 50.8126C548.351 50.8126 559.726 39.4378 559.726 25.4063C559.726 11.3748 548.351 0 534.32 0C520.288 0 508.914 11.3748 508.914 25.4063C508.914 39.4378 520.288 50.8126 534.32 50.8126Z" fill="#E69C7C"/>
</g>
<g opacity="0.9">
<path d="M424.819 137.688H356.541C349.615 137.688 344 143.303 344 150.229C344 157.155 349.615 162.77 356.541 162.77H424.819C431.745 162.77 437.359 157.155 437.359 150.229C437.359 143.303 431.745 137.688 424.819 137.688Z" fill="#E69C7C"/>
<path d="M374.888 157.66C384.764 157.66 392.77 149.654 392.77 139.778C392.77 129.902 384.764 121.896 374.888 121.896C365.012 121.896 357.006 129.902 357.006 139.778C357.006 149.654 365.012 157.66 374.888 157.66Z" fill="#E69C7C"/>
<path d="M413.439 160.447C423.315 160.447 431.321 152.441 431.321 142.565C431.321 132.689 423.315 124.683 413.439 124.683C403.563 124.683 395.557 132.689 395.557 142.565C395.557 152.441 403.563 160.447 413.439 160.447Z" fill="#E69C7C"/>
<path d="M390.68 149.764C400.556 149.764 408.562 141.758 408.562 131.882C408.562 122.006 400.556 114 390.68 114C380.804 114 372.798 122.006 372.798 131.882C372.798 141.758 380.804 149.764 390.68 149.764Z" fill="#E69C7C"/>
</g>
<g opacity="0.9">
<path d="M228.819 219.688H160.541C153.615 219.688 148 225.303 148 232.229C148 239.155 153.615 244.77 160.541 244.77H228.819C235.745 244.77 241.359 239.155 241.359 232.229C241.359 225.303 235.745 219.688 228.819 219.688Z" fill="#E69C7C"/>
<path d="M178.888 239.66C188.764 239.66 196.77 231.654 196.77 221.778C196.77 211.902 188.764 203.896 178.888 203.896C169.012 203.896 161.006 211.902 161.006 221.778C161.006 231.654 169.012 239.66 178.888 239.66Z" fill="#E69C7C"/>
<path d="M217.439 242.447C227.315 242.447 235.321 234.441 235.321 224.565C235.321 214.689 227.315 206.683 217.439 206.683C207.563 206.683 199.557 214.689 199.557 224.565C199.557 234.441 207.563 242.447 217.439 242.447Z" fill="#E69C7C"/>
<path d="M194.68 231.764C204.556 231.764 212.562 223.758 212.562 213.882C212.562 204.006 204.556 196 194.68 196C184.804 196 176.798 204.006 176.798 213.882C176.798 223.758 184.804 231.764 194.68 231.764Z" fill="#E69C7C"/>
</g>
<g opacity="0.9">
<path d="M663.242 181.088H579.399C570.895 181.088 564 187.983 564 196.488C564 204.992 570.895 211.887 579.399 211.887H663.242C671.746 211.887 678.641 204.992 678.641 196.488C678.641 187.983 671.746 181.088 663.242 181.088Z" fill="#E69C7C"/>
<path d="M601.928 205.613C614.055 205.613 623.886 195.781 623.886 183.654C623.886 171.527 614.055 161.695 601.928 161.695C589.801 161.695 579.969 171.527 579.969 183.654C579.969 195.781 589.801 205.613 601.928 205.613Z" fill="#E69C7C"/>
<path d="M649.267 209.035C661.394 209.035 671.226 199.204 671.226 187.077C671.226 174.95 661.394 165.118 649.267 165.118C637.14 165.118 627.309 174.95 627.309 187.077C627.309 199.204 637.14 209.035 649.267 209.035Z" fill="#E69C7C"/>
<path d="M621.32 195.917C633.447 195.917 643.279 186.086 643.279 173.959C643.279 161.832 633.447 152 621.32 152C609.193 152 599.362 161.832 599.362 173.959C599.362 186.086 609.193 195.917 621.32 195.917Z" fill="#E69C7C"/>
</g>
<g opacity="0.9">
<path d="M838.242 146.088H754.399C745.895 146.088 739 152.983 739 161.488C739 169.992 745.895 176.887 754.399 176.887H838.242C846.746 176.887 853.641 169.992 853.641 161.488C853.641 152.983 846.746 146.088 838.242 146.088Z" fill="#E69C7C"/>
<path d="M776.928 170.612C789.055 170.612 798.886 160.781 798.886 148.654C798.886 136.527 789.055 126.695 776.928 126.695C764.801 126.695 754.969 136.527 754.969 148.654C754.969 160.781 764.801 170.612 776.928 170.612Z" fill="#E69C7C"/>
<path d="M824.267 174.035C836.394 174.035 846.226 164.204 846.226 152.077C846.226 139.95 836.394 130.118 824.267 130.118C812.14 130.118 802.309 139.95 802.309 152.077C802.309 164.204 812.14 174.035 824.267 174.035Z" fill="#E69C7C"/>
<path d="M796.32 160.917C808.447 160.917 818.279 151.086 818.279 138.959C818.279 126.832 808.447 117 796.32 117C784.193 117 774.362 126.832 774.362 138.959C774.362 151.086 784.193 160.917 796.32 160.917Z" fill="#E69C7C"/>
</g>
<g opacity="0.9">
<path d="M262.241 129.088H178.4C169.895 129.088 163 135.983 163 144.488C163 152.992 169.895 159.887 178.4 159.887H262.241C270.746 159.887 277.641 152.992 277.641 144.488C277.641 135.983 270.746 129.088 262.241 129.088Z" fill="#E69C7C"/>
<path d="M200.928 153.612C213.055 153.612 222.886 143.781 222.886 131.654C222.886 119.527 213.055 109.695 200.928 109.695C188.801 109.695 178.969 119.527 178.969 131.654C178.969 143.781 188.801 153.612 200.928 153.612Z" fill="#E69C7C"/>
<path d="M248.267 157.035C260.394 157.035 270.226 147.204 270.226 135.077C270.226 122.95 260.394 113.118 248.267 113.118C236.14 113.118 226.309 122.95 226.309 135.077C226.309 147.204 236.14 157.035 248.267 157.035Z" fill="#E69C7C"/>
<path d="M220.32 143.917C232.447 143.917 242.279 134.086 242.279 121.959C242.279 109.832 232.447 100 220.32 100C208.193 100 198.362 109.832 198.362 121.959C198.362 134.086 208.193 143.917 220.32 143.917Z" fill="#E69C7C"/>
</g>
<g opacity="0.9">
<path d="M131.296 49.4832H20.3735C9.12153 49.4832 0 58.6047 0 69.8567C0 81.1087 9.12153 90.2302 20.3735 90.2302H131.296C142.547 90.2302 151.669 81.1087 151.669 69.8567C151.669 58.6047 142.547 49.4832 131.296 49.4832Z" fill="#E69C7C"/>
<path d="M50.179 81.9299C66.2235 81.9299 79.2301 68.9233 79.2301 52.8788C79.2301 36.8343 66.2235 23.8277 50.179 23.8277C34.1346 23.8277 21.1279 36.8343 21.1279 52.8788C21.1279 68.9233 34.1346 81.9299 50.179 81.9299Z" fill="#E69C7C"/>
<path d="M112.809 86.4573C128.853 86.4573 141.86 73.4507 141.86 57.4062C141.86 41.3617 128.853 28.3551 112.809 28.3551C96.7644 28.3551 83.7578 41.3617 83.7578 57.4062C83.7578 73.4507 96.7644 86.4573 112.809 86.4573Z" fill="#E69C7C"/>
<path d="M75.8345 69.1022C91.879 69.1022 104.886 56.0956 104.886 40.0511C104.886 24.0066 91.879 11 75.8345 11C59.7901 11 46.7834 24.0066 46.7834 40.0511C46.7834 56.0956 59.7901 69.1022 75.8345 69.1022Z" fill="#E69C7C"/>
</g>
<g opacity="0.9">
<path d="M741.744 36.718H667.615C660.096 36.718 654 42.8138 654 50.3334V50.3335C654 57.8531 660.096 63.9489 667.615 63.9489H741.744C749.263 63.9489 755.359 57.8531 755.359 50.3335V50.3334C755.359 42.8138 749.263 36.718 741.744 36.718Z" fill="#E69C7C"/>
<path d="M687.534 58.4019C698.256 58.4019 706.949 49.7097 706.949 38.9873C706.949 28.2649 698.256 19.5727 687.534 19.5727C676.812 19.5727 668.119 28.2649 668.119 38.9873C668.119 49.7097 676.812 58.4019 687.534 58.4019Z" fill="#E69C7C"/>
<path d="M729.389 61.4275C740.111 61.4275 748.804 52.7353 748.804 42.0129C748.804 31.2905 740.111 22.5983 729.389 22.5983C718.667 22.5983 709.974 31.2905 709.974 42.0129C709.974 52.7353 718.667 61.4275 729.389 61.4275Z" fill="#E69C7C"/>
<path d="M704.68 49.8292C715.402 49.8292 724.095 41.137 724.095 30.4146C724.095 19.6922 715.402 11 704.68 11C693.958 11 685.265 19.6922 685.265 30.4146C685.265 41.137 693.958 49.8292 704.68 49.8292Z" fill="#E69C7C"/>
</g>
</g>
<defs>
<clipPath id="clip0_567_4188">
<rect width="854" height="245" fill="white"/>
</clipPath>
</defs>
</svg>
